<svg width="42" height="24" viewBox="0 0 42 24" fill="none" xmlns="http://www.w3.org/2000/svg">
<g clip-path="url(#clip0_429_461)">
<path d="M39.3 0H2C0.9 0 0 0.9 0 2V22C0 23.1 0.9 24 2 24H39.3C40.4 24 41.3 23.1 41.3 22V2C41.3 0.9 40.4 0 39.3 0Z" fill="black"/>
<path d="M37.3 17.2H3.90002C3.40002 17.2 2.90002 16.7 2.90002 16.2V7.80005C2.90002 7.20005 3.40002 6.80005 3.90002 6.80005H37.3C37.8 6.80005 38.3 7.20005 38.3 7.80005V16.2C38.3 16.8 37.8 17.2 37.3 17.2Z" fill="white"/>
<path d="M15 14.7V10.8C15 9.69995 14.4 9.19995 13.4 9.19995C12.6 9.19995 11.9 9.69995 11.5 10.2C11.3 9.59995 10.8 9.19995 10 9.19995C9.20005 9.19995 8.50005 9.69995 8.20005 9.99995V9.39995H6.80005V14.8H8.20005V11.2C8.40005 10.9 8.80005 10.6 9.30005 10.6C9.90005 10.6 10.1 11 10.1 11.5V14.9H11.5V11.3C11.7 11 12.1 10.7 12.6 10.7C13.2 10.7 13.4 11.1 13.4 11.6V15H15V14.7Z" fill="black"/>
<path d="M18.9 14.8999C20.7 14.8999 21.8 13.5999 21.8 12.0999C21.8 10.5999 20.7 9.29993 18.9 9.29993C17.1 9.29993 16 10.5999 16 12.0999C16 13.5999 17.1 14.8999 18.9 14.8999ZM18.9 13.5999C18 13.5999 17.5 12.8999 17.5 11.9999C17.5 11.1999 18 10.3999 18.9 10.3999C19.8 10.3999 20.3 11.0999 20.3 11.9999C20.3 12.8999 19.8 13.5999 18.9 13.5999Z" fill="black"/>
<path d="M27.9 14.7V10.9C27.9 9.89995 27.3 9.19995 26.1 9.19995C25.2 9.19995 24.6001 9.59995 24.2001 9.99995V9.39995H22.8V14.8H24.2001V11.2C24.4001 10.9 24.9 10.6 25.4 10.6C26 10.6 26.4 10.9 26.4 11.6V14.9H27.9V14.7Z" fill="black"/>
<path d="M31.8 14.8999C33.6 14.8999 34.7 13.5999 34.7 12.0999C34.7 10.5999 33.6 9.29993 31.8 9.29993C30 9.29993 28.9 10.5999 28.9 12.0999C28.9 13.5999 30 14.8999 31.8 14.8999ZM31.8 13.5999C30.9 13.5999 30.4 12.8999 30.4 11.9999C30.4 11.1999 30.9 10.3999 31.8 10.3999C32.7 10.3999 33.2 11.0999 33.2 11.9999C33.2 12.8999 32.7 13.5999 31.8 13.5999Z" fill="black"/>
</g>
<defs>
<clipPath id="clip0_429_461">
<rect width="41.3" height="24" fill="white"/>
</clipPath>
</defs>
</svg>
