<svg width="42" height="24" viewBox="0 0 42 24" fill="none" xmlns="http://www.w3.org/2000/svg">
<g clip-path="url(#clip0_429_442)">
<path d="M39.3 0.8C40 0.8 40.6 1.4 40.6 2.1V22.1C40.6 22.8 40 23.4 39.3 23.4H2C1.3 23.4 0.7 22.8 0.7 22.1V2C0.7 1.3 1.3 0.7 2 0.7L39.3 0.8ZM39.3 0H2C0.9 0 0 0.9 0 2V22C0 23.1 0.9 24 2 24H39.3C40.4 24 41.3 23.1 41.3 22V2C41.3 0.9 40.4 0 39.3 0Z" fill="#E6E7E8"/>
<path d="M21 17.8C19.8 18.8 18.3 19.4 16.6 19.4C12.9 19.4 9.80005 16.3 9.80005 12.6C9.80005 8.80005 12.8 5.80005 16.6 5.80005C18.3 5.80005 19.8 6.40005 21 7.40005C22.2 6.40005 23.7 5.80005 25.4 5.80005C29.1 5.80005 32.2001 8.90005 32.2001 12.6C32.2001 16.4 29.2 19.4 25.4 19.4C23.7 19.4 22.2 18.8 21 17.8Z" fill="#ED0006"/>
<path d="M21 17.8C22.5 16.5 23.4 14.7 23.4 12.6C23.4 10.5 22.5 8.60005 21 7.40005C22.2 6.40005 23.7 5.80005 25.4 5.80005C29.1 5.80005 32.2 8.90005 32.2 12.6C32.2 16.4 29.2 19.4 25.4 19.4C23.7 19.4 22.2 18.8 21 17.8Z" fill="#F9A000"/>
<path d="M21 7.40002C22.5 8.70002 23.4 10.5 23.4 12.6C23.4 14.7 22.5 16.6 21 17.8C19.5 16.5 18.6 14.7 18.6 12.6C18.6 10.5 19.6 8.60002 21 7.40002Z" fill="#FF5E00"/>
<g clip-path="url(#clip1_429_442)">
<path d="M39.3 0.8C40 0.8 40.6 1.4 40.6 2.1V22.1C40.6 22.8 40 23.4 39.3 23.4H2C1.3 23.4 0.7 22.8 0.7 22.1V2C0.7 1.3 1.3 0.7 2 0.7L39.3 0.8ZM39.3 0H2C0.9 0 0 0.9 0 2V22C0 23.1 0.9 24 2 24H39.3C40.4 24 41.3 23.1 41.3 22V2C41.3 0.9 40.4 0 39.3 0Z" fill="#E6E7E8"/>
<path d="M21 17.8C19.8 18.8 18.3 19.4 16.6 19.4C12.9 19.4 9.80005 16.3 9.80005 12.6C9.80005 8.80005 12.8 5.80005 16.6 5.80005C18.3 5.80005 19.8 6.40005 21 7.40005C22.2 6.40005 23.7 5.80005 25.4 5.80005C29.1 5.80005 32.2001 8.90005 32.2001 12.6C32.2001 16.4 29.2 19.4 25.4 19.4C23.7 19.4 22.2 18.8 21 17.8Z" fill="#ED0006"/>
<path d="M21 17.8C22.5 16.5 23.4 14.7 23.4 12.6C23.4 10.5 22.5 8.60005 21 7.40005C22.2 6.40005 23.7 5.80005 25.4 5.80005C29.1 5.80005 32.2 8.90005 32.2 12.6C32.2 16.4 29.2 19.4 25.4 19.4C23.7 19.4 22.2 18.8 21 17.8Z" fill="#F9A000"/>
<path d="M21 7.40002C22.5 8.70002 23.4 10.5 23.4 12.6C23.4 14.7 22.5 16.6 21 17.8C19.5 16.5 18.6 14.7 18.6 12.6C18.6 10.5 19.6 8.60002 21 7.40002Z" fill="#FF5E00"/>
</g>
</g>
<defs>
<clipPath id="clip0_429_442">
<rect width="41.3" height="24" fill="white"/>
</clipPath>
<clipPath id="clip1_429_442">
<rect width="41.3" height="24" fill="white"/>
</clipPath>
</defs>
</svg>
