<?xml version="1.0" encoding="utf-8"?>
<!-- Generator: Adobe Illustrator 25.2.1, SVG Export Plug-In . SVG Version: 6.00 Build 0)  -->
<svg version="1.1" id="Layer_1" xmlns="http://www.w3.org/2000/svg" xmlns:xlink="http://www.w3.org/1999/xlink" x="0px" y="0px"
	 viewBox="0 0 34 34" style="enable-background:new 0 0 34 34;" xml:space="preserve">
<style type="text/css">
	.st0{fill:#9DA9B9;}
</style>
<g>
	<g>
		<g>
			<path class="st0" d="M29.73,20.35v9.33c0,1.1-0.9,2-2,2H6.4c-1.1,0-2-0.9-2-2v-9.33H3.07v9.33c0,1.84,1.49,3.33,3.33,3.33h21.33
				c1.84,0,3.33-1.49,3.33-3.33v-9.33C31.06,20.35,29.73,20.35,29.73,20.35z"/>
		</g>
	</g>
	<g>
		<g>
			<path class="st0" d="M29.07,6.35H22.4c-0.37,0-0.67,0.3-0.67,0.67v2c0,2.21,1.79,4,4,4s4-1.79,4-4v-2
				C29.73,6.65,29.44,6.35,29.07,6.35z M28.4,9.02c0,1.47-1.19,2.67-2.67,2.67s-2.67-1.19-2.67-2.67V7.69h5.33v1.33H28.4z"/>
		</g>
	</g>
	<g>
		<g>
			<path class="st0" d="M14.4,10.35h-8c-1.1,0-2,0.9-2,2v7.33H1.07v0.67c0,0.37,0.3,0.67,0.67,0.67h3.33c0.37,0,0.67-0.3,0.67-0.67
				v-8c0-0.37,0.3-0.67,0.67-0.67h8c0.37,0,0.67,0.3,0.67,0.67v6.67c0,0.37-0.3,0.67-0.67,0.67H7.07v1.33h7.33c1.1,0,2-0.9,2-2
				v-6.67C16.4,11.25,15.51,10.35,14.4,10.35z"/>
		</g>
	</g>
	<g>
		<g>
			<path class="st0" d="M14.4,1.02h-8c-1.1,0-2,0.9-2,2v6.67c0,1.1,0.9,2,2,2h8c1.1,0,2-0.9,2-2V3.02
				C16.4,1.92,15.51,1.02,14.4,1.02z M15.07,9.69c0,0.37-0.3,0.67-0.67,0.67h-8c-0.37,0-0.67-0.3-0.67-0.67V3.02
				c0-0.37,0.3-0.67,0.67-0.67h8c0.37,0,0.67,0.3,0.67,0.67V9.69z"/>
		</g>
	</g>
	<g>
		<g>
			<path class="st0" d="M9.73,1.69v2.67H8.4V1.69H7.07v3.33c0,0.37,0.3,0.67,0.67,0.67h2.67c0.37,0,0.67-0.3,0.67-0.67V1.69H9.73z"
				/>
		</g>
	</g>
	<g>
		<g>
			<path class="st0" d="M9.73,11.02v2.67H8.4v-2.67H7.07v3.33c0,0.37,0.3,0.67,0.67,0.67h2.67c0.37,0,0.67-0.3,0.67-0.67v-3.33H9.73
				z"/>
		</g>
	</g>
	<g>
		<g>
			<rect x="6.4" y="25.69" class="st0" width="4" height="1.33"/>
		</g>
	</g>
	<g>
		<g>
			<rect x="6.4" y="28.35" class="st0" width="4" height="1.33"/>
		</g>
	</g>
	<g>
		<g>
			<path class="st0" d="M17.07,19.69v1.33H32.4c0.37,0,0.67-0.3,0.67-0.67v-0.67L17.07,19.69L17.07,19.69z"/>
		</g>
	</g>
	<g>
		<g>
			<path class="st0" d="M25.73,1.69c-2.21,0-4,1.79-4,4v0.67h-2v0.67c0,0.37,0.3,0.67,0.67,0.67h2c0.37,0,0.67-0.3,0.67-0.67V5.69
				c0-1.47,1.19-2.67,2.67-2.67s2.67,1.19,2.67,2.67v1.33h1.33V5.69C29.73,3.48,27.94,1.69,25.73,1.69z"/>
		</g>
	</g>
	<g>
		<g>
			<path class="st0" d="M28.4,12.35h-5.33c-1.84,0-3.33,1.49-3.33,3.33v4.67h1.33v-4.67c0-1.1,0.9-2,2-2h5.33c1.1,0,2,0.9,2,2v4.67
				h1.33v-4.67C31.73,13.85,30.24,12.36,28.4,12.35z"/>
		</g>
	</g>
	<g>
		<g>
			<rect x="25.07" y="13.02" class="st0" width="1.33" height="7.33"/>
		</g>
	</g>
	<g>
		<g>
			<path class="st0" d="M26.6,12.55l-0.86,0.86l-0.86-0.86l-0.94,0.94l1.33,1.33c0.12,0.12,0.29,0.2,0.47,0.2
				c0.18,0,0.35-0.07,0.47-0.2l1.33-1.33L26.6,12.55z"/>
		</g>
	</g>
	<g>
		<g>
			<rect x="21.73" y="17.69" class="st0" width="1.33" height="2.67"/>
		</g>
	</g>
	<g>
		<g>
			<rect x="28.4" y="17.69" class="st0" width="1.33" height="2.67"/>
		</g>
	</g>
</g>
</svg>
