<svg width="42" height="24" viewBox="0 0 42 24" fill="none" xmlns="http://www.w3.org/2000/svg">
<g clip-path="url(#clip0_429_456)">
<path d="M39.3 0.8C40 0.8 40.6 1.4 40.6 2.1V22.1C40.6 22.8 40 23.4 39.3 23.4H2C1.3 23.4 0.7 22.8 0.7 22.1V2C0.7 1.3 1.3 0.7 2 0.7L39.3 0.8ZM39.3 0H2C0.9 0 0 0.9 0 2V22C0 23.1 0.9 24 2 24H39.3C40.4 24 41.3 23.1 41.3 22V2C41.3 0.9 40.4 0 39.3 0Z" fill="#E6E7E8"/>
<path d="M13.8 17.2H11.4L9.60002 10.3C9.50002 10 9.30002 9.70005 9.10002 9.60005C8.40002 9.30005 7.70002 9.00005 6.90002 8.90005V8.50005H10.8C11.3 8.50005 11.7 8.90005 11.8 9.40005L12.7 14.4L15.1 8.50005H17.5L13.8 17.2ZM18.8 17.2H16.5L18.4 8.50005H20.7L18.8 17.2ZM23.6 10.9C23.7 10.4 24.1 10.2 24.5 10.2C25.2 10.1 26 10.3 26.7 10.6L27.1 8.70005C26.4 8.40005 25.7 8.30005 25 8.30005C22.8 8.30005 21.2 9.50005 21.2 11.2C21.2 12.5 22.3 13.1 23.2 13.5C24.1 13.9 24.4 14.2 24.3 14.6C24.3 15.2 23.6 15.5 23 15.5C22.2 15.5 21.4 15.3 20.6 15L20.2 16.9C21 17.2 21.9 17.4 22.7 17.4C25.2 17.5 26.7 16.3 26.7 14.5C26.8 12 23.6 11.9 23.6 10.9ZM34.8 17.2L33 8.50005H31C30.6 8.50005 30.2 8.80005 30.1 9.20005L26.7 17.2H29.1L29.6 15.9H32.5L32.8 17.2H34.8ZM31.4 10.8L32.1 14.1H30.2L31.4 10.8Z" fill="#172B85"/>
</g>
<defs>
<clipPath id="clip0_429_456">
<rect width="41.3" height="24" fill="white"/>
</clipPath>
</defs>
</svg>
